<svg width="217" height="200" viewBox="0 0 217 200" fill="none" xmlns="http://www.w3.org/2000/svg">
<path d="M175.556 57.8442C137.742 68.142 101.678 23.8848 127.772 -2.2091C139.026 -13.4633 157.203 -14.766 172.326 -8.31673C207.253 6.5798 208.026 49.0071 175.556 57.8442Z" fill="#FFFEFD" fill-opacity="0.2"/>
<path d="M145.876 77.5782C174.74 48.7149 232.259 88.9502 212.873 124.407C204.04 140.561 181.052 145.985 160.436 134.495C137.323 121.622 129.65 93.8045 145.876 77.5782Z" fill="#FFFEFD" fill-opacity="0.2"/>
<path d="M51.4497 -2.0018C48.5464 3.11165 42.1441 10.9375 34.8005 18.4868C27.0442 26.473 18.2406 34.1515 11.4364 38.0115C-6.96547 48.412 -16.8819 77.6867 7.51994 93.4896C30.0808 108.097 43.3112 92.7489 64.3023 106.982C85.5064 121.377 107.328 116.736 119.517 103.203C130.797 90.6771 133.822 70.5324 120.44 50.8364C106.175 29.853 121.503 16.6621 106.896 -5.8868C91.0931 -30.3205 61.8295 -20.3104 51.4497 -2.0018Z" fill="#FFFEFD" fill-opacity="0.2"/>
<path d="M95.0759 128.375C103.24 120.211 114.981 117.928 126.114 121.269C159.217 131.206 169.985 180.021 141.887 195.358C106.361 214.769 66.2285 157.223 95.0759 128.375Z" fill="#FFFEFD" fill-opacity="0.2"/>
<path d="M49.0886 108.48C80.9692 121.825 86.6235 171.415 56.9521 183.704C21.2127 198.508 -12.7884 142.215 14.999 114.427C23.9167 105.51 36.9697 103.406 49.0886 108.48Z" fill="#FFFEFD" fill-opacity="0.2"/>
</svg>
